<?xml version="1.0" standalone="no"?>
<!DOCTYPE svg PUBLIC "-//W3C//DTD SVG 20010904//EN"
 "http://www.w3.org/TR/2001/REC-SVG-20010904/DTD/svg10.dtd">
<svg version="1.0" xmlns="http://www.w3.org/2000/svg"
 width="1024.000000pt" height="1024.000000pt" viewBox="0 0 1024.000000 1024.000000"
 preserveAspectRatio="xMidYMid meet">

<g transform="translate(0.000000,1024.000000) scale(0.100000,-0.100000)"
fill="#000000" stroke="none">
<path d="M4950 8629 c-249 -23 -524 -111 -708 -225 -313 -195 -498 -479 -542
-828 -18 -141 -8 -426 20 -592 l22 -131 -35 -46 c-52 -68 -62 -107 -62 -232 0
-81 5 -125 19 -165 65 -191 196 -333 336 -362 l58 -12 21 -79 c45 -168 105
-285 202 -398 l49 -56 0 -275 0 -275 31 -44 c115 -161 299 -272 514 -308 268
-45 524 -6 723 110 65 39 165 134 206 196 l28 42 -2 276 -1 276 57 62 c101
109 159 221 204 389 l23 87 51 12 c28 6 73 23 101 37 154 77 277 320 261 517
-7 94 -20 134 -62 196 l-36 52 15 81 c57 292 59 567 7 772 -26 101 -96 247
-151 312 -82 97 -206 162 -313 162 -41 0 -41 0 -79 74 -134 261 -528 416 -957
375z m903 -931 c20 -35 64 -97 97 -138 165 -202 194 -241 235 -321 70 -136 90
-219 90 -379 0 -97 -5 -153 -18 -200 -20 -74 -84 -216 -93 -207 -4 3 -10 113
-15 244 -8 247 -22 347 -59 446 -30 79 -122 214 -213 312 l-74 79 -25 -19
c-14 -11 -54 -42 -89 -70 -260 -204 -631 -323 -1089 -350 -96 -5 -378 7 -492
21 l-46 6 -11 -54 c-20 -96 -30 -209 -37 -415 -4 -112 -10 -203 -14 -203 -11
0 -75 148 -88 202 -52 211 -23 438 76 608 36 61 41 65 73 64 331 -13 612 -15
724 -5 390 36 691 156 945 376 41 35 77 64 80 65 3 0 22 -28 43 -62z"/>
<path d="M4037 4738 c-84 -118 -124 -228 -134 -367 l-6 -86 62 -12 c92 -17
183 -64 252 -129 104 -100 149 -209 149 -363 0 -71 2 -81 18 -81 31 0 42 -22
42 -85 0 -63 -11 -85 -42 -85 -16 0 -17 -30 -20 -472 -4 -528 -3 -524 -75
-607 -57 -67 -94 -81 -220 -81 -124 0 -148 10 -158 64 -8 42 16 93 51 106 14
6 53 10 87 10 70 0 98 14 122 60 13 25 15 117 15 633 0 691 3 662 -84 751
-109 111 -271 141 -411 75 -69 -32 -139 -106 -164 -174 -20 -54 -21 -73 -21
-637 0 -416 3 -592 12 -620 6 -22 25 -50 41 -64 24 -20 39 -24 97 -24 59 0 73
-4 99 -26 40 -33 43 -89 7 -131 -21 -24 -32 -28 -93 -31 -149 -9 -242 39 -300
152 -25 48 -27 62 -34 246 -4 107 -8 324 -8 483 -1 274 -2 287 -20 287 -31 0
-42 24 -39 87 3 54 5 59 35 73 l33 15 0 92 c0 101 20 183 63 256 40 67 142
156 223 193 l71 33 6 113 c6 110 30 228 62 303 8 21 13 40 10 43 -14 14 -253
-71 -393 -141 -215 -107 -342 -198 -484 -345 -249 -260 -421 -647 -468 -1057
-5 -50 -10 -252 -10 -449 0 -411 1 -416 82 -469 70 -46 379 -135 693 -201 304
-63 635 -103 1165 -138 309 -21 1286 -18 1570 5 527 42 939 100 1255 177 280
69 482 134 528 170 55 44 57 58 57 444 0 470 -17 613 -101 873 -84 259 -218
483 -393 659 -132 133 -266 225 -471 324 -128 63 -356 150 -391 150 -10 0 -8
-13 12 -57 47 -104 84 -226 106 -343 18 -100 21 -174 28 -568 4 -249 9 -454
11 -456 2 -2 38 -20 79 -41 385 -193 386 -720 1 -908 l-86 -42 -131 0 -130 0
-87 43 c-134 66 -226 166 -273 297 -31 86 -33 214 -4 307 48 157 189 294 339
333 l46 11 3 450 c2 489 -2 550 -54 703 -45 131 -160 329 -189 324 -5 0 -23
-34 -41 -75 -17 -40 -72 -167 -121 -283 -50 -115 -122 -284 -161 -375 -39 -91
-127 -300 -197 -465 -202 -477 -426 -997 -447 -1039 -12 -23 -23 -35 -29 -29
-5 5 -85 180 -177 388 -180 404 -231 522 -451 1035 -227 531 -363 845 -366
848 -2 2 -23 -25 -48 -60z"/>
<path d="M6297 3093 c-4 -3 -7 -32 -7 -64 0 -35 -5 -61 -12 -66 -7 -4 -40 -10
-73 -13 l-60 -5 0 -115 0 -115 70 -5 70 -5 5 -70 5 -70 130 0 130 0 0 70 0 70
78 3 78 3 -3 117 -3 117 -72 3 -73 3 0 74 0 75 -128 0 c-71 0 -132 -3 -135 -7z"/>
</g>
</svg>
