<?xml version="1.0" standalone="no"?>
<!DOCTYPE svg PUBLIC "-//W3C//DTD SVG 20010904//EN"
 "http://www.w3.org/TR/2001/REC-SVG-20010904/DTD/svg10.dtd">
<svg version="1.0" xmlns="http://www.w3.org/2000/svg"
 width="874.000000pt" height="333.000000pt" viewBox="0 0 874.000000 333.000000"
 preserveAspectRatio="xMidYMid meet">

<g transform="translate(0.000000,333.000000) scale(0.100000,-0.100000)"
fill="#000000" stroke="none">
<path d="M7335 3323 c-518 -46 -902 -216 -1210 -534 -256 -264 -393 -582 -426
-988 -36 -450 100 -885 378 -1206 343 -397 904 -606 1563 -582 346 13 644 74
970 200 l115 45 3 811 2 811 -717 -2 -718 -3 -3 -332 -2 -333 355 0 355 0 0
-224 c0 -122 -3 -250 -6 -284 l-7 -60 -61 -16 c-102 -25 -273 -39 -416 -33
-319 13 -573 107 -758 281 -131 124 -209 249 -265 421 -44 135 -49 187 -45
411 4 204 5 211 36 303 57 165 134 301 224 396 102 108 178 165 295 221 195
93 380 122 695 110 314 -12 434 -45 746 -203 112 -57 206 -103 208 -103 2 0 4
148 4 329 l0 329 -85 35 c-254 107 -522 171 -815 197 -109 9 -327 11 -415 3z"/>
<path d="M1045 3314 c-320 -47 -587 -171 -753 -349 -144 -155 -202 -313 -202
-550 0 -163 43 -310 131 -445 145 -224 357 -343 944 -526 502 -156 611 -210
681 -336 27 -49 29 -61 29 -158 0 -90 -3 -111 -23 -148 -112 -210 -468 -279
-965 -187 -279 51 -482 129 -767 294 -101 58 -105 59 -112 38 -3 -12 -6 -160
-7 -328 l-1 -306 104 -47 c222 -99 443 -165 711 -212 127 -22 190 -27 407 -31
274 -6 421 4 562 37 454 106 740 357 812 709 26 129 16 369 -20 470 -82 233
-242 399 -521 538 -107 54 -211 90 -588 203 -381 114 -503 166 -581 250 -52
55 -69 106 -70 200 -1 88 38 168 111 227 139 112 449 140 798 73 207 -40 355
-101 635 -258 70 -39 107 -55 112 -48 9 14 10 303 1 493 l-6 141 -91 45 c-162
80 -424 161 -621 193 -96 15 -635 29 -710 18z"/>
<path d="M3330 1670 l0 -1590 1050 0 1050 0 -2 277 -3 278 -687 3 -688 2 0
1310 0 1310 -360 0 -360 0 0 -1590z"/>
</g>
</svg>
