<?xml version="1.0" standalone="no"?>
<!DOCTYPE svg PUBLIC "-//W3C//DTD SVG 20010904//EN"
 "http://www.w3.org/TR/2001/REC-SVG-20010904/DTD/svg10.dtd">
<svg version="1.0" xmlns="http://www.w3.org/2000/svg"
 width="352.000000pt" height="400.000000pt" viewBox="0 0 352.000000 400.000000"
 preserveAspectRatio="xMidYMid meet">

<g transform="translate(0.000000,400.000000) scale(0.100000,-0.100000)"
fill="#000000" stroke="none">
<path d="M1072 3381 c-579 -335 -1055 -611 -1058 -614 -12 -12 104 -165 191
-253 175 -177 390 -291 640 -340 128 -26 349 -24 475 3 425 91 765 389 908
793 51 146 66 238 66 410 0 172 -15 264 -66 410 -33 94 -84 200 -96 200 -4 -1
-481 -274 -1060 -609z"/>
<path d="M3335 3219 c-340 -36 -645 -207 -848 -477 -170 -227 -247 -458 -247
-742 0 -213 44 -395 137 -572 198 -376 567 -617 1001 -653 l82 -7 0 1231 0
1231 -22 -1 c-13 -1 -59 -5 -103 -10z"/>
<path d="M954 1840 c-365 -38 -696 -233 -895 -529 -28 -41 -46 -77 -42 -82 11
-10 2084 -1206 2105 -1214 13 -5 23 6 46 52 145 287 169 633 66 943 -140 419
-506 737 -937 814 -110 20 -244 26 -343 16z"/>
</g>
</svg>
