<?xml version="1.0" standalone="no"?>
<!DOCTYPE svg PUBLIC "-//W3C//DTD SVG 20010904//EN"
 "http://www.w3.org/TR/2001/REC-SVG-20010904/DTD/svg10.dtd">
<svg version="1.0" xmlns="http://www.w3.org/2000/svg"
 width="874.000000pt" height="637.000000pt" viewBox="0 0 874.000000 637.000000"
 preserveAspectRatio="xMidYMid meet">

<g transform="translate(0.000000,637.000000) scale(0.100000,-0.100000)"
fill="#000000" stroke="none">
<path d="M7335 6363 c-518 -46 -902 -216 -1210 -534 -256 -264 -393 -582 -426
-988 -36 -450 100 -885 378 -1206 343 -397 904 -606 1563 -582 346 13 644 74
970 200 l115 45 3 811 2 811 -717 -2 -718 -3 -3 -332 -2 -333 355 0 355 0 0
-224 c0 -122 -3 -250 -6 -284 l-7 -60 -61 -16 c-102 -25 -273 -39 -416 -33
-319 13 -573 107 -758 281 -131 124 -209 249 -265 421 -44 135 -49 187 -45
411 4 204 5 211 36 303 57 165 134 301 224 396 102 108 178 165 295 221 195
93 380 122 695 110 314 -12 434 -45 746 -203 112 -57 206 -103 208 -103 2 0 4
148 4 329 l0 329 -85 35 c-254 107 -522 171 -815 197 -109 9 -327 11 -415 3z"/>
<path d="M1045 6354 c-320 -47 -587 -171 -753 -349 -144 -155 -202 -313 -202
-550 0 -163 43 -310 131 -445 145 -224 357 -343 944 -526 502 -156 611 -210
681 -336 27 -49 29 -61 29 -158 0 -90 -3 -111 -23 -148 -112 -210 -468 -279
-965 -187 -279 51 -482 129 -767 294 -101 58 -105 59 -112 38 -3 -12 -6 -160
-7 -328 l-1 -306 104 -47 c222 -99 443 -165 711 -212 127 -22 190 -27 407 -31
274 -6 421 4 562 37 454 106 740 357 812 709 26 129 16 369 -20 470 -82 233
-242 399 -521 538 -107 54 -211 90 -588 203 -381 114 -503 166 -581 250 -52
55 -69 106 -70 200 -1 88 38 168 111 227 139 112 449 140 798 73 207 -40 355
-101 635 -258 70 -39 107 -55 112 -48 9 14 10 303 1 493 l-6 141 -91 45 c-162
80 -424 161 -621 193 -96 15 -635 29 -710 18z"/>
<path d="M3330 4710 l0 -1590 1050 0 1050 0 -2 278 -3 277 -687 3 -688 2 0
1310 0 1310 -360 0 -360 0 0 -1590z"/>
<path d="M336 2069 c-109 -26 -225 -121 -274 -227 -25 -53 -27 -66 -27 -197 0
-134 1 -142 28 -192 34 -66 125 -156 191 -191 48 -26 58 -27 191 -27 124 0
147 3 200 24 80 32 165 114 207 199 30 61 32 70 32 186 1 96 -3 132 -18 173
-42 113 -143 206 -264 243 -69 21 -195 26 -266 9z m204 -139 c113 -31 178
-118 187 -249 7 -98 -13 -171 -63 -229 -58 -68 -103 -87 -209 -87 -103 0 -132
12 -195 76 -78 81 -100 243 -46 352 28 58 78 106 138 132 38 17 137 19 188 5z"/>
<path d="M2139 2066 c-70 -20 -166 -75 -201 -115 -77 -88 -121 -251 -100 -376
32 -195 155 -316 353 -346 148 -23 287 19 385 117 92 92 133 207 121 342 -16
185 -115 319 -271 368 -67 22 -227 27 -287 10z m225 -138 c57 -17 138 -99 159
-162 19 -56 22 -152 7 -208 -45 -159 -240 -246 -388 -172 -56 28 -90 63 -125
128 -18 34 -22 57 -22 136 0 87 3 100 30 149 34 61 84 106 141 126 49 18 144
19 198 3z"/>
<path d="M4605 2067 c-144 -48 -241 -146 -280 -281 -26 -90 -18 -253 17 -327
31 -68 119 -159 191 -196 50 -27 58 -28 192 -28 124 0 147 3 200 24 80 32 165
114 207 199 30 61 32 70 32 186 1 96 -3 132 -18 173 -39 105 -126 192 -233
234 -72 28 -245 36 -308 16z m267 -160 c51 -26 69 -43 94 -85 68 -112 58 -277
-22 -370 -48 -57 -104 -84 -185 -90 -179 -13 -294 105 -293 298 1 171 106 280
270 280 62 0 81 -5 136 -33z"/>
<path d="M6099 2061 c-120 -38 -238 -153 -271 -264 -7 -23 -13 -91 -12 -152 0
-149 22 -204 115 -298 77 -77 124 -101 229 -118 148 -23 325 31 406 124 84 96
126 242 107 367 -36 229 -197 361 -438 359 -48 0 -102 -7 -136 -18z m288 -157
c153 -94 177 -340 45 -472 -53 -53 -123 -76 -211 -70 -81 6 -137 33 -185 90
-91 105 -88 302 5 403 64 70 108 87 211 83 75 -4 93 -8 135 -34z"/>
<path d="M7059 2066 c-106 -28 -215 -120 -265 -221 -27 -57 -29 -67 -29 -190
0 -122 2 -134 29 -192 32 -70 125 -167 194 -202 109 -56 343 -47 497 19 l45
19 0 211 0 211 -157 -3 -158 -3 -3 -67 -3 -68 81 0 80 0 0 -90 c0 -85 -1 -90
-25 -106 -40 -26 -192 -32 -252 -9 -63 24 -126 84 -154 148 -32 73 -32 181 0
255 30 67 104 135 166 152 86 24 211 2 288 -52 17 -12 24 -7 63 37 24 27 44
57 44 66 0 22 -95 67 -178 85 -81 17 -201 17 -263 0z"/>
<path d="M1010 1651 c0 -226 3 -411 8 -413 4 -2 100 -1 214 2 l208 7 77 38
c92 45 160 111 200 192 26 54 28 66 28 178 0 109 -2 125 -27 177 -33 71 -102
146 -167 181 -64 35 -151 46 -368 47 l-173 0 0 -409z m405 254 c73 -22 110
-48 140 -98 58 -100 56 -217 -7 -311 -53 -80 -126 -110 -298 -123 l-90 -6 0
283 0 283 103 -6 c56 -4 125 -13 152 -22z"/>
<path d="M2827 2053 c-4 -3 -7 -188 -7 -410 l0 -403 75 0 75 0 1 108 c1 59 4
194 8 300 l6 193 193 -300 194 -301 94 0 94 0 0 410 0 410 -75 0 -75 0 -2
-296 -3 -296 -194 296 -194 296 -92 0 c-50 0 -95 -3 -98 -7z"/>
<path d="M3640 1995 l0 -65 120 0 120 0 0 -193 c0 -107 3 -262 7 -345 l6 -152
74 0 73 0 0 345 0 345 125 0 126 0 -3 63 -3 62 -322 3 -323 2 0 -65z"/>
<path d="M5290 1650 l0 -410 250 0 250 0 0 65 0 65 -175 0 -175 0 0 345 0 345
-75 0 -75 0 0 -410z"/>
<path d="M7680 1650 l0 -410 75 0 75 0 0 410 0 410 -75 0 -75 0 0 -410z"/>
<path d="M8252 2048 c-13 -17 -329 -748 -338 -782 l-6 -26 80 0 80 0 33 90 34
90 180 -2 180 -3 35 -87 35 -88 83 0 c82 0 83 0 76 23 -4 12 -82 196 -173 410
l-166 387 -61 0 c-37 0 -66 -5 -72 -12z m128 -337 c27 -72 50 -135 50 -141 0
-6 -44 -10 -115 -10 -63 0 -115 1 -115 3 0 8 50 148 80 226 24 62 35 80 41 68
5 -8 31 -74 59 -146z"/>
<path d="M925 857 c-128 -43 -187 -116 -187 -236 -1 -127 55 -180 267 -256 62
-23 115 -73 115 -110 0 -36 -55 -90 -105 -104 -51 -14 -107 1 -157 40 -20 16
-41 29 -45 29 -5 0 -31 -22 -58 -50 -48 -49 -48 -50 -30 -70 10 -11 48 -35 84
-53 61 -30 73 -32 166 -32 93 0 106 3 160 30 94 49 154 156 141 252 -13 97
-73 161 -191 201 -93 32 -169 76 -183 105 -20 42 0 95 44 113 52 22 124 18
177 -11 l46 -24 50 52 c45 47 48 53 35 69 -9 9 -39 26 -67 39 -64 28 -201 36
-262 16z"/>
<path d="M3060 856 c-77 -22 -124 -52 -187 -120 -85 -90 -106 -147 -107 -291
-1 -82 4 -123 17 -162 38 -109 139 -210 246 -248 29 -10 81 -15 160 -15 107 0
121 2 176 29 56 26 125 82 125 101 0 14 -69 69 -95 76 -18 4 -34 -1 -58 -18
-58 -45 -94 -58 -154 -58 -115 0 -217 76 -249 186 -24 84 -16 197 19 257 83
141 238 178 379 91 l36 -23 45 30 c72 48 74 52 26 93 -23 20 -68 45 -98 57
-70 27 -215 35 -281 15z"/>
<path d="M70 433 l0 -416 107 6 c58 4 184 7 280 7 l173 0 0 63 0 64 -97 6
c-54 4 -149 7 -210 7 l-113 0 0 105 0 105 195 0 195 0 0 70 0 70 -195 0 -196
0 3 98 3 97 198 3 197 2 0 65 0 65 -270 0 -270 0 0 -417z"/>
<path d="M1410 437 l0 -417 75 0 75 0 0 175 0 175 73 0 c254 1 357 71 357 242
-1 115 -60 196 -162 218 -29 6 -135 14 -235 17 l-183 6 0 -416z m376 258 c30
-20 46 -50 47 -91 2 -69 -69 -104 -208 -104 l-65 0 0 112 0 111 101 -6 c65 -4
110 -12 125 -22z"/>
<path d="M2110 433 l0 -416 107 6 c58 4 184 7 280 7 l173 0 0 63 0 64 -97 6
c-54 4 -149 7 -210 7 l-113 0 0 105 0 105 188 2 187 3 0 65 0 65 -188 3 -188
2 3 98 3 97 198 3 197 2 0 65 0 65 -270 0 -270 0 0 -417z"/>
<path d="M3573 728 c4 -66 7 -251 7 -410 l0 -288 75 0 75 0 0 410 0 410 -82 0
-81 0 6 -122z"/>
<path d="M4085 693 c-266 -613 -284 -658 -272 -664 6 -3 44 -4 84 -1 l71 4 32
89 32 89 184 0 c102 0 184 -4 184 -9 0 -5 16 -48 36 -96 l37 -87 68 4 c37 2
71 7 76 11 11 12 -18 87 -184 474 l-147 343 -67 0 -66 0 -68 -157z m205 -221
c23 -62 39 -116 35 -120 -9 -9 -211 -9 -221 0 -7 8 18 83 74 217 l35 84 17
-34 c10 -19 36 -85 60 -147z"/>
<path d="M4710 440 l0 -410 250 0 250 0 0 64 0 63 -82 6 c-46 4 -122 7 -170 7
l-88 0 0 340 0 340 -80 0 -80 0 0 -410z"/>
<path d="M5298 443 c2 -225 5 -409 6 -409 0 -1 31 -4 69 -8 l67 -7 0 416 0
415 -73 0 -74 0 5 -407z"/>
<path d="M5560 785 l0 -65 63 -1 c34 -1 129 -4 210 -8 l148 -6 -210 -268 -211
-269 0 -74 0 -74 313 2 312 3 3 72 3 72 -210 3 c-115 2 -212 6 -216 10 -3 3
79 113 184 245 205 256 241 312 241 380 l0 43 -315 0 -315 0 0 -65z"/>
<path d="M6390 445 c-136 -317 -171 -408 -161 -415 12 -7 118 -4 146 5 6 1 23
41 40 89 l30 86 181 0 182 0 33 -90 34 -90 83 0 c82 0 83 0 76 23 -9 28 -157
385 -257 617 l-75 175 -69 3 -68 3 -175 -406z m304 49 c25 -68 46 -128 46
-133 0 -6 -16 -13 -35 -17 -42 -8 -181 -2 -191 9 -4 3 19 73 51 153 51 127 60
144 71 129 7 -9 33 -73 58 -141z"/>
<path d="M7120 614 c0 -131 3 -317 7 -411 l6 -173 167 0 c92 0 191 5 221 10
128 24 249 112 303 218 85 168 29 415 -119 521 -67 48 -135 61 -372 68 l-213
6 0 -239z m405 81 c106 -31 159 -89 177 -197 22 -132 -26 -236 -137 -293 -53
-27 -69 -30 -172 -34 l-113 -3 0 277 0 277 98 -6 c53 -4 120 -14 147 -21z"/>
<path d="M8253 838 c-11 -14 -245 -550 -309 -705 -20 -51 -34 -96 -30 -100 3
-4 39 -7 78 -7 l72 -1 36 93 35 92 130 0 c71 0 153 -3 182 -6 l51 -7 34 -81
33 -81 83 -3 c45 -2 82 1 82 5 0 4 -76 186 -169 403 -143 334 -173 396 -193
401 -40 12 -105 10 -115 -3z m127 -337 c27 -72 50 -138 50 -146 0 -13 -20 -15
-121 -15 -93 0 -120 3 -116 13 3 6 31 79 63 160 40 103 60 144 66 134 4 -8 30
-74 58 -146z"/>
</g>
</svg>
