<svg width="143" height="158" viewBox="0 0 143 158" fill="none" xmlns="http://www.w3.org/2000/svg">
<path fill-rule="evenodd" clip-rule="evenodd" d="M110.281 104.369C110.989 100.437 111.76 96.5147 112.396 92.5668C113.927 83.0616 108.864 74.4782 99.5518 72.348C91.8747 70.5876 83.9216 70.0355 76.0934 68.8897C68.9841 67.8532 61.6247 67.5668 54.833 65.4678C44.4216 62.2491 36.682 55.7491 35.4528 43.8532C34.8539 38.0459 36.3487 32.7282 40.2862 28.5616C48.7862 19.5668 57.5987 10.8584 66.3226 2.07197C69.2237 -0.844698 73.7757 -0.605114 76.708 2.30634C85.4945 11.0147 94.3799 19.6241 103.151 28.3532C108.953 34.1345 114.567 40.1084 120.364 45.9001C125.802 51.3272 131.505 56.4886 136.802 62.0511C139.119 64.4834 142.297 66.3584 142.823 70.3272C143.526 75.6345 139.541 77.9418 136.552 80.848C130.541 86.6918 124.39 92.3897 118.281 98.1345C115.849 100.421 113.369 102.666 110.911 104.931C110.703 104.744 110.489 104.556 110.281 104.369Z" fill="#AE0D41"/>
<path fill-rule="evenodd" clip-rule="evenodd" d="M32.7601 52.6918C32.1559 55.8636 31.5049 58.3324 31.2497 60.8376C30.9007 64.3116 30.6507 67.822 30.708 71.3116C30.8434 79.848 38.057 84.7595 44.8955 86.6189C54.2705 89.1657 63.9007 89.5668 73.5414 89.8636C81.9111 90.1241 89.7549 92.3428 96.7861 96.9574C103.682 101.478 107.515 108.207 107.922 116.213C108.172 121.176 105.776 126.004 102.354 129.843C98.3903 134.296 94.1872 138.536 89.9997 142.78C85.458 147.379 80.833 151.895 76.2132 156.411C74.3851 158.197 69.0466 158.431 67.1924 156.634C62.1716 151.775 57.2653 146.796 52.3226 141.853C48.2966 137.822 44.2914 133.775 40.2757 129.733C34.2914 123.718 28.3382 117.671 22.3226 111.687C16.6611 106.051 10.9268 100.499 5.25489 94.8741C3.83823 93.473 2.43719 92.0303 1.22885 90.4574C-0.489898 88.2178 -0.437814 84.9209 1.58823 82.6397C4.09864 79.8168 6.87469 77.2126 9.61948 74.598C17.1247 67.447 24.6716 60.3428 32.7601 52.6918Z" fill="#0163AC"/>
</svg>
